<?xml version="1.0" encoding="utf-8"?>
<!-- Generator: Adobe Illustrator 22.0.0, SVG Export Plug-In . SVG Version: 6.00 Build 0)  -->
<svg version="1.1" id="Layer_1" xmlns="http://www.w3.org/2000/svg" xmlns:xlink="http://www.w3.org/1999/xlink" x="0px" y="0px"
	 viewBox="0 0 217 70" style="enable-background:new 0 0 217 70;" xml:space="preserve">
<style type="text/css">
	.st0{fill:#2B2343;}
	.st1{fill:#7352D1;}
</style>
<g>
	<g>
		<path class="st0" d="M0,40.1v-35h23.3v4.9H5.5v10.4h14.9V25H5.5v15.1H0z"/>
		<path class="st0" d="M27.9,4.1h5.4v28.5c0,1,0.2,1.7,0.7,2.2c0.5,0.5,1.2,0.8,2.1,0.8c0.4,0,0.8-0.1,1.3-0.2
			c0.5-0.1,0.9-0.3,1.4-0.4l0.8,4.2c-0.8,0.4-1.7,0.6-2.8,0.9c-1.1,0.2-2.1,0.3-2.9,0.3c-1.9,0-3.3-0.5-4.4-1.5
			c-1-1-1.6-2.5-1.6-4.3V4.1z"/>
		<path class="st0" d="M54.4,40.6c-2,0-3.8-0.4-5.5-1.1c-1.6-0.7-3-1.7-4.2-2.9c-1.2-1.2-2.1-2.6-2.7-4.2c-0.6-1.6-1-3.3-1-5.1
			c0-1.8,0.3-3.5,1-5.2c0.6-1.6,1.5-3.1,2.7-4.3c1.2-1.2,2.6-2.2,4.2-2.9c1.6-0.7,3.5-1.1,5.5-1.1c2,0,3.8,0.4,5.4,1.1
			c1.6,0.7,3,1.7,4.2,2.9c1.1,1.2,2,2.6,2.6,4.2c0.6,1.6,0.9,3.3,0.9,5c0,0.4,0,0.8,0,1.1c0,0.3-0.1,0.6-0.1,0.9H46.8
			c0.1,1.2,0.4,2.2,0.8,3.1c0.4,0.9,1,1.7,1.7,2.4c0.7,0.7,1.5,1.2,2.4,1.6c0.9,0.4,1.8,0.5,2.8,0.5c0.7,0,1.4-0.1,2.1-0.3
			c0.7-0.2,1.4-0.4,1.9-0.8c0.6-0.3,1.1-0.8,1.6-1.3c0.5-0.5,0.8-1,1.1-1.6l4.6,1.3c-0.9,1.9-2.4,3.5-4.4,4.8
			C59.5,39.9,57.1,40.6,54.4,40.6z M62.2,25.2c-0.1-1.1-0.4-2.1-0.8-3c-0.4-0.9-1-1.7-1.7-2.3c-0.7-0.6-1.5-1.1-2.4-1.5
			c-0.9-0.4-1.9-0.5-2.9-0.5c-1,0-2,0.2-2.9,0.5c-0.9,0.4-1.7,0.9-2.4,1.5c-0.7,0.6-1.2,1.4-1.7,2.3c-0.4,0.9-0.7,1.9-0.8,3H62.2z"
			/>
		<path class="st1" d="M76.2,28.5l3.6,4.3l-2.2,3c-2.1,3-5.6,4.7-9.3,4.7h-1l0.5-0.8L76.2,28.5z"/>
		<path class="st1" d="M97.8,45.5h-1.1c-3.6,0-7.1-1.8-9.2-4.7L62,6.6h1c3.6,0,7.1,1.8,9.3,4.7l8.5,11.6l0,0l3-4.3
			c2.1-3,5.6-4.8,9.3-4.8h1l-9.8,13.4L97.8,45.5z"/>
		<path class="st0" d="M96.8,10v-6h5.4v6H96.8z M96.8,40.1V14.3h5.4v25.8H96.8z"/>
		<path class="st0" d="M126.4,14.9h-10.8v-1.2c0-1.8,0.3-3.2,1-4.1c0.7-1,1.7-1.4,2.9-1.4c0.6,0,1.3,0.1,1.9,0.3
			c0.7,0.2,1.3,0.4,1.7,0.7l1.2-4c-0.9-0.5-1.9-0.9-2.9-1.1c-1-0.3-2.1-0.4-3.1-0.4c-2.5,0-4.5,0.9-6,2.8c-1.5,1.8-2.2,4.4-2.2,7.5
			v1h-3.4v4.2h3.4v21h5.4v-21H128L126.4,14.9z"/>
		<path class="st0" d="M141.2,14.3l-7.1,21L128,19.1l-1.6-4.2h-5.5l1.7,4.2l8.6,21c-0.5,1.3-0.9,2.4-1.2,3.2c-0.3,0.8-0.7,1.5-1,1.9
			c-0.3,0.5-0.6,0.8-1,1c-0.3,0.2-0.7,0.3-1.1,0.3c-0.3,0-0.7,0-1.2-0.1c-0.5-0.1-1-0.2-1.5-0.3v4.7c0.5,0.2,1,0.3,1.4,0.3
			c0.4,0,0.8,0.1,1.2,0.1c2,0,3.7-0.5,5-1.5c1.3-1,2.2-2.2,2.7-3.7l11.7-31.7H141.2z"/>
		<path class="st1" d="M84.2,13.1c0,1.7-1.4,3.1-3.1,3.1c-1.7,0-3.1-1.4-3.1-3.1c0-1.7,1.4-3.1,3.1-3.1C82.8,10,84.2,11.4,84.2,13.1
			z"/>
		<path class="st1" d="M182.1,40.1V11.4l-12.8,22.2h-2l-12.8-22.2v28.7h-3.4v-35h3.5L168.3,29L182,5.1h3.5v35H182.1z"/>
		<path class="st1" d="M204.3,40.6c-1.9,0-3.6-0.4-5.1-1.1c-1.6-0.7-2.9-1.7-4.1-2.9c-1.1-1.2-2-2.7-2.7-4.3c-0.6-1.6-1-3.3-1-5.2
			c0-1.8,0.3-3.5,1-5.1c0.6-1.6,1.5-3,2.7-4.2c1.1-1.2,2.5-2.2,4.1-2.9c1.6-0.7,3.3-1.1,5.1-1.1c1.9,0,3.6,0.4,5.1,1.1
			c1.6,0.7,2.9,1.7,4,2.9c1.1,1.2,2,2.6,2.6,4.2c0.6,1.6,0.9,3.3,0.9,5c0,0.3,0,0.5,0,0.8c0,0.3,0,0.4,0,0.5h-22
			c0.1,1.4,0.4,2.7,1,3.8c0.5,1.2,1.2,2.2,2.1,3c0.9,0.9,1.8,1.5,2.9,2c1.1,0.5,2.3,0.7,3.5,0.7c0.8,0,1.6-0.1,2.5-0.3
			c0.8-0.2,1.6-0.5,2.3-0.9c0.7-0.4,1.3-0.9,1.9-1.5c0.6-0.6,1-1.2,1.3-1.9l2.9,0.8c-0.4,1-1,1.8-1.7,2.6c-0.7,0.8-1.6,1.4-2.5,2
			c-1,0.6-2,1-3.2,1.3C206.8,40.4,205.6,40.6,204.3,40.6z M213.8,25.9c-0.1-1.4-0.4-2.6-1-3.8c-0.5-1.1-1.2-2.1-2.1-2.9
			c-0.8-0.8-1.8-1.5-2.9-1.9c-1.1-0.5-2.3-0.7-3.5-0.7c-1.2,0-2.4,0.2-3.5,0.7c-1.1,0.5-2.1,1.1-2.9,1.9c-0.8,0.8-1.5,1.8-2,3
			c-0.5,1.1-0.8,2.4-0.9,3.7H213.8z"/>
	</g>
	<g>
		<path d="M92.5,56.1v7.5h-1V58L89,63.6h-0.7L85.8,58v5.6h-1v-7.5h1.1l2.8,6.2l2.8-6.2H92.5z"/>
		<path d="M96,56.5c-0.1-0.1-0.2-0.3-0.2-0.5c0-0.2,0.1-0.3,0.2-0.5c0.1-0.1,0.3-0.2,0.5-0.2c0.2,0,0.3,0.1,0.5,0.2
			c0.1,0.1,0.2,0.3,0.2,0.5c0,0.2-0.1,0.3-0.2,0.5c-0.1,0.1-0.3,0.2-0.5,0.2C96.3,56.7,96.1,56.6,96,56.5z M97,57.7v5.9h-1v-5.9H97z
			"/>
		<path d="M105.1,58.2c0.4,0.4,0.7,1.1,0.7,1.9v3.5h-1v-3.4c0-0.6-0.1-1-0.4-1.4c-0.3-0.3-0.7-0.5-1.2-0.5c-0.5,0-0.9,0.2-1.2,0.5
			c-0.3,0.3-0.5,0.8-0.5,1.4v3.3h-1v-5.9h1v0.8c0.2-0.3,0.5-0.5,0.8-0.7c0.3-0.2,0.7-0.2,1.1-0.2C104.1,57.6,104.7,57.8,105.1,58.2z
			"/>
		<path d="M109.3,59c0.2-0.5,0.6-0.8,1-1.1c0.4-0.3,0.9-0.4,1.4-0.4c0.5,0,0.9,0.1,1.3,0.3c0.4,0.2,0.7,0.5,0.9,0.8v-3.1h1v8h-1
			v-1.1c-0.2,0.4-0.5,0.6-0.9,0.9c-0.4,0.2-0.8,0.3-1.3,0.3c-0.5,0-1-0.1-1.4-0.4c-0.4-0.3-0.8-0.6-1-1.1c-0.2-0.5-0.4-1-0.4-1.6
			C108.9,60,109,59.5,109.3,59z M113.7,59.5c-0.2-0.3-0.4-0.6-0.7-0.8c-0.3-0.2-0.6-0.3-1-0.3s-0.7,0.1-1,0.3
			c-0.3,0.2-0.5,0.4-0.7,0.8c-0.2,0.3-0.3,0.7-0.3,1.2c0,0.5,0.1,0.9,0.3,1.2c0.2,0.3,0.4,0.6,0.7,0.8c0.3,0.2,0.6,0.3,1,0.3
			s0.7-0.1,1-0.3c0.3-0.2,0.6-0.4,0.7-0.8c0.2-0.3,0.3-0.7,0.3-1.2S113.8,59.8,113.7,59.5z"/>
		<path d="M128.8,60.1h-2.3v2.3h-0.9v-2.3h-2.3v-0.8h2.3v-2.4h0.9v2.4h2.3V60.1z"/>
		<path d="M141.7,60.1c0.2,0.2,0.4,0.4,0.5,0.7s0.2,0.6,0.2,0.9c0,0.4-0.1,0.7-0.3,1s-0.5,0.5-0.9,0.7c-0.4,0.2-0.8,0.3-1.3,0.3
			h-2.8v-7.6h2.7c0.5,0,0.9,0.1,1.3,0.3c0.4,0.2,0.6,0.4,0.8,0.7c0.2,0.3,0.3,0.6,0.3,1c0,0.4-0.1,0.8-0.4,1.1
			c-0.2,0.3-0.6,0.5-1,0.6C141.2,59.8,141.5,59.9,141.7,60.1z M138.1,59.3h1.7c0.5,0,0.8-0.1,1.1-0.3c0.3-0.2,0.4-0.5,0.4-0.9
			s-0.1-0.7-0.4-0.9c-0.3-0.2-0.6-0.3-1.1-0.3h-1.6V59.3z M141,62.5c0.3-0.2,0.4-0.6,0.4-1c0-0.4-0.1-0.7-0.4-1
			c-0.3-0.2-0.7-0.4-1.2-0.4h-1.7v2.7h1.7C140.4,62.8,140.8,62.7,141,62.5z"/>
		<path d="M146.7,63.3c-0.5-0.3-0.8-0.6-1.1-1.1c-0.3-0.5-0.4-1-0.4-1.6c0-0.6,0.1-1.1,0.4-1.6c0.3-0.5,0.6-0.8,1.1-1.1
			c0.5-0.2,1-0.4,1.5-0.4c0.6,0,1.1,0.1,1.5,0.4c0.5,0.2,0.8,0.6,1.1,1.1c0.3,0.5,0.4,1,0.4,1.6c0,0.6-0.1,1.2-0.4,1.6
			c-0.3,0.5-0.6,0.8-1.1,1.1c-0.5,0.3-1,0.4-1.5,0.4C147.7,63.7,147.2,63.6,146.7,63.3z M149.2,62.6c0.3-0.2,0.6-0.4,0.8-0.7
			c0.2-0.3,0.3-0.7,0.3-1.2s-0.1-0.9-0.3-1.2c-0.2-0.3-0.4-0.6-0.7-0.7c-0.3-0.2-0.6-0.2-1-0.2c-0.4,0-0.7,0.1-1,0.2
			c-0.3,0.2-0.5,0.4-0.7,0.7c-0.2,0.3-0.3,0.7-0.3,1.2c0,0.5,0.1,0.9,0.3,1.2c0.2,0.3,0.4,0.6,0.7,0.7c0.3,0.2,0.6,0.2,1,0.2
			C148.6,62.8,148.9,62.8,149.2,62.6z"/>
		<path d="M154.4,59c0.2-0.5,0.6-0.8,1-1.1c0.4-0.3,0.9-0.4,1.4-0.4c0.5,0,0.9,0.1,1.3,0.3c0.4,0.2,0.7,0.5,0.9,0.8v-3.1h1v8h-1
			v-1.1c-0.2,0.4-0.5,0.6-0.9,0.9c-0.4,0.2-0.8,0.3-1.3,0.3c-0.5,0-1-0.1-1.4-0.4c-0.4-0.3-0.8-0.6-1-1.1c-0.2-0.5-0.4-1-0.4-1.6
			C154.1,60,154.2,59.5,154.4,59z M158.8,59.5c-0.2-0.3-0.4-0.6-0.7-0.8c-0.3-0.2-0.6-0.3-1-0.3c-0.4,0-0.7,0.1-1,0.3
			c-0.3,0.2-0.5,0.4-0.7,0.8c-0.2,0.3-0.3,0.7-0.3,1.2c0,0.5,0.1,0.9,0.3,1.2c0.2,0.3,0.4,0.6,0.7,0.8c0.3,0.2,0.6,0.3,1,0.3
			c0.4,0,0.7-0.1,1-0.3c0.3-0.2,0.6-0.4,0.7-0.8c0.2-0.3,0.3-0.7,0.3-1.2S159,59.8,158.8,59.5z"/>
		<path d="M168.7,57.7l-3.6,8.7h-1l1.2-2.9l-2.4-5.9h1.1l1.9,4.8l1.8-4.8H168.7z"/>
		<path d="M181.9,60.1h-2.3v2.3h-0.9v-2.3h-2.3v-0.8h2.3v-2.4h0.9v2.4h2.3V60.1z"/>
		<path d="M191.3,63.4c-0.4-0.2-0.7-0.4-0.9-0.7c-0.2-0.3-0.3-0.7-0.3-1.1h1.1c0,0.4,0.2,0.7,0.4,0.9c0.3,0.2,0.6,0.4,1.1,0.4
			c0.5,0,0.8-0.1,1.1-0.4c0.3-0.2,0.4-0.5,0.4-0.9c0-0.3-0.1-0.5-0.2-0.7c-0.2-0.2-0.4-0.3-0.6-0.4c-0.2-0.1-0.6-0.2-1-0.3
			c-0.5-0.1-0.9-0.3-1.2-0.4c-0.3-0.1-0.6-0.3-0.8-0.6c-0.2-0.3-0.3-0.7-0.3-1.1c0-0.4,0.1-0.8,0.3-1.1c0.2-0.3,0.5-0.6,0.9-0.7
			c0.4-0.2,0.8-0.3,1.3-0.3c0.7,0,1.3,0.2,1.7,0.5c0.5,0.4,0.7,0.8,0.8,1.4H194c0-0.3-0.2-0.5-0.5-0.8c-0.3-0.2-0.6-0.3-1.1-0.3
			c-0.4,0-0.7,0.1-1,0.3c-0.3,0.2-0.4,0.5-0.4,0.9c0,0.3,0.1,0.5,0.2,0.7c0.2,0.2,0.3,0.3,0.6,0.4c0.2,0.1,0.5,0.2,1,0.3
			c0.5,0.1,0.9,0.3,1.2,0.4c0.3,0.1,0.6,0.3,0.8,0.6c0.2,0.3,0.3,0.7,0.3,1.1c0,0.4-0.1,0.7-0.3,1c-0.2,0.3-0.5,0.6-0.9,0.8
			c-0.4,0.2-0.8,0.3-1.4,0.3C192.1,63.7,191.7,63.6,191.3,63.4z"/>
		<path d="M199.5,63.3c-0.5-0.3-0.8-0.6-1.1-1.1c-0.3-0.5-0.4-1-0.4-1.6c0-0.6,0.1-1.1,0.4-1.6c0.3-0.5,0.6-0.8,1.1-1.1
			c0.5-0.2,1-0.4,1.5-0.4c0.6,0,1.1,0.1,1.5,0.4c0.5,0.2,0.8,0.6,1.1,1.1c0.3,0.5,0.4,1,0.4,1.6c0,0.6-0.1,1.2-0.4,1.6
			c-0.3,0.5-0.6,0.8-1.1,1.1c-0.5,0.3-1,0.4-1.5,0.4C200.5,63.7,200,63.6,199.5,63.3z M202,62.6c0.3-0.2,0.6-0.4,0.8-0.7
			c0.2-0.3,0.3-0.7,0.3-1.2s-0.1-0.9-0.3-1.2c-0.2-0.3-0.4-0.6-0.7-0.7c-0.3-0.2-0.6-0.2-1-0.2c-0.4,0-0.7,0.1-1,0.2
			c-0.3,0.2-0.5,0.4-0.7,0.7c-0.2,0.3-0.3,0.7-0.3,1.2c0,0.5,0.1,0.9,0.3,1.2c0.2,0.3,0.4,0.6,0.7,0.7c0.3,0.2,0.6,0.2,1,0.2
			C201.4,62.8,201.7,62.8,202,62.6z"/>
		<path d="M212.5,57.7v5.9h-1v-0.9c-0.2,0.3-0.4,0.5-0.8,0.7c-0.3,0.2-0.7,0.3-1.1,0.3c-0.5,0-0.9-0.1-1.2-0.3
			c-0.4-0.2-0.7-0.5-0.9-0.9c-0.2-0.4-0.3-0.8-0.3-1.4v-3.5h1V61c0,0.6,0.1,1,0.4,1.3c0.3,0.3,0.7,0.5,1.2,0.5
			c0.5,0,0.9-0.2,1.2-0.5c0.3-0.3,0.5-0.8,0.5-1.4v-3.3H212.5z"/>
		<path d="M217,55.6v8h-1v-8H217z"/>
	</g>
	<g>
		<rect y="60.6" class="st1" width="75.2" height="0.7"/>
	</g>
</g>
</svg>
